<?xml version="1.0" standalone="no"?>
<!DOCTYPE svg PUBLIC "-//W3C//DTD SVG 20010904//EN"
 "http://www.w3.org/TR/2001/REC-SVG-20010904/DTD/svg10.dtd">
<svg version="1.0" xmlns="http://www.w3.org/2000/svg"
 width="186.000000pt" height="186.000000pt" viewBox="0 0 186.000000 186.000000"
 preserveAspectRatio="xMidYMid meet">

<g transform="translate(0.000000,186.000000) scale(0.100000,-0.100000)"
fill="#000000" stroke="none">
<path d="M860 1693 c-307 -48 -460 -158 -534 -380 -34 -103 -43 -151 -61 -316
-17 -162 -18 -322 -2 -460 l12 -98 240 -126 c132 -69 245 -127 251 -130 11 -4
11 1 -24 230 -10 64 -16 117 -14 117 3 0 26 -13 51 -28 99 -61 237 -102 344
-102 45 0 59 -7 225 -120 157 -108 177 -118 184 -101 4 11 14 97 23 193 8 95
23 235 31 312 24 201 15 411 -20 529 -46 152 -112 254 -233 359 -109 94 -313
147 -473 121z m346 -412 c30 -33 69 -61 117 -85 l72 -35 -43 0 c-35 -1 -45 -5
-49 -21 -10 -39 -142 -38 -163 1 -13 24 -75 26 -146 4 -27 -8 -62 -15 -79 -15
l-30 0 35 27 c19 15 67 60 105 100 58 60 76 72 103 72 28 1 41 -7 78 -48z
m-622 -234 c22 -53 45 -96 51 -94 5 2 11 20 13 40 2 19 8 40 15 45 13 10 217
33 230 25 4 -2 7 -18 7 -34 0 -69 51 -129 110 -129 17 0 19 -3 10 -19 -49 -92
77 -179 180 -126 27 14 33 14 62 -1 75 -39 188 9 188 80 0 17 -5 38 -10 46 -9
15 7 28 39 29 19 1 9 -188 -13 -249 -55 -150 -179 -219 -371 -207 -209 13
-412 141 -525 332 -31 51 -41 61 -71 65 -114 19 -174 144 -111 230 32 43 83
71 121 68 34 -3 36 -5 75 -101z m562 41 c37 -37 -33 -157 -93 -159 -75 -3
-111 23 -120 88 -6 48 9 80 39 86 54 9 159 0 174 -15z m271 16 c22 -6 33 -26
54 -102 15 -53 0 -74 -53 -74 -74 0 -128 55 -128 131 0 23 6 32 28 39 32 12
68 14 99 6z m-157 -101 l27 -51 -67 -4 -68 -3 30 58 c16 32 34 57 41 54 6 -2
23 -26 37 -54z"/>
<path d="M461 1051 c-23 -15 7 -106 34 -106 26 0 30 33 11 79 -16 38 -22 41
-45 27z"/>
<path d="M1024 1075 c-15 -23 -15 -27 0 -50 27 -40 96 -25 96 21 0 55 -66 75
-96 29z"/>
<path d="M1336 1085 c-20 -21 -21 -49 0 -69 22 -22 57 -20 80 5 17 19 17 23 3
47 -17 32 -59 40 -83 17z"/>
</g>
</svg>
